<svg width="28" height="28" viewBox="0 0 28 28" fill="none" xmlns="http://www.w3.org/2000/svg">
<path d="M13.9998 25.6667C15.2832 25.6667 16.3332 24.6167 16.3332 23.3334H11.6665C11.6665 24.6167 12.7165 25.6667 13.9998 25.6667ZM20.9998 18.6667V12.8334C20.9998 9.25169 19.0982 6.25335 15.7498 5.46002V4.66669C15.7498 3.69835 14.9682 2.91669 13.9998 2.91669C13.0315 2.91669 12.2498 3.69835 12.2498 4.66669V5.46002C8.91317 6.25335 6.99984 9.24002 6.99984 12.8334V18.6667L4.6665 21V22.1667H23.3332V21L20.9998 18.6667ZM18.6665 19.8334H9.33317V12.8334C9.33317 9.94002 11.0948 7.58335 13.9998 7.58335C16.9048 7.58335 18.6665 9.94002 18.6665 12.8334V19.8334Z" fill="#424242"/>
</svg>
